<svg id="Group_164" data-name="Group 164" xmlns="http://www.w3.org/2000/svg" width="189.123" height="47.628" viewBox="0 0 189.123 47.628">
  <path id="Path_430" data-name="Path 430" d="M9.037,7.794v3.667a6.852,6.852,0,0,1,6.722-4.069v7.333h-.2c-4.978,0-6.024,1.708-6.024,6.681v13.36H1.57V7.794Z" transform="translate(0.201 0.946)" fill="#fff"/>
  <path id="Path_431" data-name="Path 431" d="M40.168,26.976c-2.589,5.626-7.02,8.488-12.993,8.488a13.151,13.151,0,0,1-10.107-4.319,14.279,14.279,0,0,1-3.933-10A14.173,14.173,0,0,1,27.074,7.036c8.513,0,14.338,6.178,14.338,16.224v.853H21.249c.7,2.863,2.739,4.371,6.174,4.371a5.809,5.809,0,0,0,4.083-1.508ZM33.5,18.487a6.175,6.175,0,0,0-6.322-4.268c-3.287,0-5.626,1.708-6.174,4.268Z" transform="translate(1.681 0.901)" fill="#fff"/>
  <path id="Path_432" data-name="Path 432" d="M46.65,35.712H39.033V0h7.915V11.754a8.836,8.836,0,0,1,7.469-3.416,12.367,12.367,0,0,1,8.911,3.717A13.74,13.74,0,0,1,67.61,22.1a13.755,13.755,0,0,1-4.68,10.6,12.065,12.065,0,0,1-8.364,3.164A10.3,10.3,0,0,1,46.65,32.7Zm6.172-7.032a6.588,6.588,0,0,0,6.92-6.63,6.69,6.69,0,0,0-6.671-6.68A6.489,6.489,0,0,0,46.6,22.15a6.345,6.345,0,0,0,6.223,6.53" transform="translate(4.996 0)" fill="#fff"/>
  <path id="Path_433" data-name="Path 433" d="M92.324,26.976C89.735,32.6,85.3,35.464,79.33,35.464a13.149,13.149,0,0,1-10.107-4.319,14.279,14.279,0,0,1-3.933-10A14.173,14.173,0,0,1,79.23,7.036c8.513,0,14.337,6.178,14.337,16.224v.853H73.4c.7,2.863,2.739,4.371,6.174,4.371a5.8,5.8,0,0,0,4.082-1.508Zm-6.671-8.488a6.175,6.175,0,0,0-6.322-4.268c-3.287,0-5.626,1.708-6.174,4.268Z" transform="translate(8.357 0.901)" fill="#fff"/>
  <rect id="Rectangle_204" data-name="Rectangle 204" width="7.816" height="35.711" transform="translate(102.966 0)" fill="#fff"/>
  <rect id="Rectangle_205" data-name="Rectangle 205" width="7.816" height="35.711" transform="translate(114.297 0)" fill="#fff"/>
  <path id="Path_434" data-name="Path 434" d="M111,0h7.817V6.278H111Zm0,8.739h7.817V35.711H111Z" transform="translate(14.208 0)" fill="#fff"/>
  <path id="Path_435" data-name="Path 435" d="M123.86,11.343a14.043,14.043,0,0,1,19.765-.3,14.088,14.088,0,0,1,4.381,10.1A14.09,14.09,0,0,1,133.817,35.5a13.158,13.158,0,0,1-10.107-4.32,14.163,14.163,0,0,1-3.932-9.944,13.892,13.892,0,0,1,4.082-9.9m10.007,16.626a6.482,6.482,0,0,0,6.322-6.63,6.331,6.331,0,1,0-12.644,0,6.516,6.516,0,0,0,6.321,6.63" transform="translate(15.332 0.912)" fill="#fff"/>
  <path id="Path_436" data-name="Path 436" d="M146.256,34.777V7.8h7.467l-.1,3.616A8.3,8.3,0,0,1,161.291,7.3c5.526,0,9.111,3.515,9.111,9.693V34.777h-7.867V20.16c0-3.768-.8-5.475-3.834-5.475-3.085,0-4.729,1.859-4.729,5.475V34.777Z" transform="translate(18.721 0.935)" fill="#fff"/>
  <rect id="Rectangle_206" data-name="Rectangle 206" width="12.781" height="7.182" transform="translate(106.091 18.635)" fill="#f39200"/>
  <path id="Path_437" data-name="Path 437" d="M5.781,41.521H2.75l-.487,1.431H0l3.108-8.237H5.423l3.108,8.237H6.268Zm-.563-1.627-.952-2.742-.953,2.742Z" transform="translate(0 4.444)" fill="#fff"/>
  <path id="Path_438" data-name="Path 438" d="M23.117,38.37h4.212a11.877,11.877,0,0,1-.054,1.19,4.192,4.192,0,0,1-.218.995,3.977,3.977,0,0,1-.616,1.142,3.637,3.637,0,0,1-.915.83,4.293,4.293,0,0,1-1.153.508,4.929,4.929,0,0,1-1.322.176,4.58,4.58,0,0,1-1.737-.318A3.915,3.915,0,0,1,19.966,42a4.029,4.029,0,0,1-.878-1.376,5.2,5.2,0,0,1-.006-3.54,3.892,3.892,0,0,1,.878-1.371,3.967,3.967,0,0,1,1.369-.884,4.831,4.831,0,0,1,1.787-.317,4.4,4.4,0,0,1,2.241.557A3.843,3.843,0,0,1,26.884,36.8l-2.015.841a2.07,2.07,0,0,0-.73-.972,1.833,1.833,0,0,0-1.023-.294,2.029,2.029,0,0,0-.866.18,1.885,1.885,0,0,0-.667.513,2.475,2.475,0,0,0-.432.8,3.284,3.284,0,0,0-.157,1.049,3.341,3.341,0,0,0,.134.971,2.208,2.208,0,0,0,.406.775,1.831,1.831,0,0,0,.671.509,2.244,2.244,0,0,0,.932.18,2.621,2.621,0,0,0,.607-.071,1.6,1.6,0,0,0,.525-.229,1.316,1.316,0,0,0,.385-.411,1.615,1.615,0,0,0,.205-.611H23.117Z" transform="translate(2.403 4.418)" fill="#fff"/>
  <path id="Path_439" data-name="Path 439" d="M43.135,36.53H40.611v1.376h2.382V39.72H40.611v1.419h2.523v1.814H38.49V34.717h4.645Z" transform="translate(4.927 4.444)" fill="#fff"/>
  <path id="Path_440" data-name="Path 440" d="M54.9,42.953V34.716h2.122l3.92,5.035V34.716h2.11v8.237h-2.11l-3.92-5.035v5.035Z" transform="translate(7.028 4.444)" fill="#fff"/>
  <path id="Path_441" data-name="Path 441" d="M80.607,37.5a2.26,2.26,0,0,0-1.819-.907,2.215,2.215,0,0,0-.882.175,2.125,2.125,0,0,0-.7.476,2.179,2.179,0,0,0-.46.715,2.369,2.369,0,0,0-.167.9,2.4,2.4,0,0,0,.167.906,2.175,2.175,0,0,0,1.164,1.2,2.146,2.146,0,0,0,.866.175,2.45,2.45,0,0,0,1.83-.873v2.533l-.217.076a6.244,6.244,0,0,1-.909.258,4.506,4.506,0,0,1-.834.081,4.175,4.175,0,0,1-1.619-.323,4.248,4.248,0,0,1-1.365-.907,4.5,4.5,0,0,1-.946-1.386,4.483,4.483,0,0,1-.006-3.5,4.264,4.264,0,0,1,2.311-2.262,4.249,4.249,0,0,1,1.634-.323,4.387,4.387,0,0,1,.958.1,5.763,5.763,0,0,1,.992.321Z" transform="translate(9.518 4.418)" fill="#fff"/>
  <path id="Path_442" data-name="Path 442" d="M94.115,39l-2.978-4.282H93.67l1.516,2.249,1.5-2.249h2.533L96.237,39v3.955H94.115Z" transform="translate(11.666 4.444)" fill="#fff"/>
</svg>
